<?xml version="1.0" standalone="no"?>
<!DOCTYPE svg PUBLIC "-//W3C//DTD SVG 20010904//EN"
 "http://www.w3.org/TR/2001/REC-SVG-20010904/DTD/svg10.dtd">
<svg version="1.0" xmlns="http://www.w3.org/2000/svg"
 width="598.000000pt" height="598.000000pt" viewBox="0 0 598.000000 598.000000"
 preserveAspectRatio="xMidYMid meet">
<metadata>
Created by potrace 1.11, written by Peter Selinger 2001-2013
</metadata>
<g transform="translate(0.000000,598.000000) scale(0.100000,-0.100000)"
fill="#000000" stroke="none">
<path d="M3780 5942 c-140 -71 -355 -183 -390 -204 -330 -199 -501 -371 -559
-563 -7 -22 -15 -46 -17 -54 -3 -9 -19 8 -42 45 -84 137 -226 252 -472 381
-144 77 -564 250 -621 257 -79 9 -129 -49 -85 -100 16 -19 60 -36 191 -73 229
-66 343 -109 510 -191 243 -121 379 -243 451 -406 36 -81 34 -88 -35 -107
-287 -80 -512 -320 -574 -612 -19 -87 -16 -277 6 -355 17 -64 46 -140 59 -157
15 -19 3 -29 -85 -71 -128 -61 -361 -208 -425 -269 -7 -7 -34 -29 -60 -50 -26
-21 -49 -40 -52 -43 -3 -3 -41 -39 -84 -80 -93 -88 -194 -195 -251 -264 -22
-27 -45 -54 -50 -60 -6 -6 -36 -45 -66 -86 -261 -352 -420 -674 -514 -1041
-59 -230 -69 -481 -25 -649 54 -210 164 -356 330 -436 89 -43 150 -56 280 -59
179 -3 384 54 595 164 108 56 279 164 291 182 11 18 21 8 69 -68 172 -270 393
-443 657 -512 l72 -18 81 -211 c45 -117 84 -214 87 -217 2 -3 21 52 42 123
104 355 99 342 121 342 8 0 23 4 33 9 9 5 51 25 92 45 212 103 406 313 554
599 l55 105 34 -24 c33 -22 50 -32 177 -101 113 -63 305 -130 435 -152 63 -12
242 -15 285 -7 190 39 295 101 396 231 51 66 107 192 121 270 2 17 8 50 13 75
9 46 6 266 -4 335 -27 182 -107 421 -209 620 -57 113 -154 275 -209 350 -247
335 -504 579 -810 768 -139 86 -356 178 -475 202 -18 4 -33 10 -33 13 0 4 9
32 21 62 58 154 63 342 12 510 -96 321 -407 558 -740 563 -75 2 -93 5 -94 17
-8 121 68 278 200 411 165 166 422 308 769 425 114 38 151 79 122 133 -25 47
-90 48 -180 3z m125 -2297 c249 -111 463 -263 686 -485 123 -122 167 -171 258
-286 87 -109 203 -297 279 -449 97 -196 153 -364 189 -564 10 -56 12 -299 3
-341 -41 -189 -113 -313 -227 -390 -253 -171 -654 -106 -1090 175 l-21 14 35
103 c50 148 98 359 118 518 24 191 24 594 1 740 -5 29 -18 119 -21 140 -23
175 -107 430 -201 609 -55 104 -160 261 -176 261 -4 0 -8 4 -8 9 0 10 103 -22
175 -54z m-1743 -37 c-87 -116 -185 -313 -237 -478 -21 -67 -63 -221 -70 -260
-9 -49 -15 -90 -20 -125 -4 -22 -8 -51 -10 -65 -26 -153 -26 -655 0 -750 2 -8
6 -33 9 -55 17 -140 88 -427 126 -510 5 -11 18 -42 29 -70 10 -27 31 -74 45
-104 l25 -55 -52 -39 c-48 -36 -261 -167 -272 -167 -3 0 -33 -14 -67 -30 -67
-32 -224 -86 -280 -95 -18 -3 -45 -8 -59 -11 -30 -6 -182 -7 -219 -1 -147 23
-265 97 -347 219 -96 142 -134 424 -89 654 2 12 7 37 10 55 26 164 138 471
242 667 188 350 475 712 739 931 44 36 85 70 91 76 20 19 194 140 237 164 80
46 202 109 205 106 2 -2 -14 -27 -36 -57z"/>
</g>
</svg>
